<svg xmlns="http://www.w3.org/2000/svg" xml:space="preserve" width="1000px" height="597px" x="0px" y="0px" version="1.0" viewBox="0 0 1000 597"><path d="M887.642 1.436H1v482.771c.214 61.412 49.945 111.143 111.358 111.357h775.284c61.419-.197 111.159-49.939 111.358-111.357V112.793C998.801 51.375 949.059 1.634 887.642 1.436z"/><path fill="#FFF" d="M631.256 391.289c7.685-.002 13.916 6.227 13.918 13.912v83.59c.001 7.688-6.229 13.92-13.915 13.922h-.003c-7.689 0-13.922-6.232-13.922-13.92v-83.586c0-7.688 6.231-13.918 13.919-13.918h.003zM303.863 391.195H238.88c-7.688.107-13.832 6.428-13.724 14.115.106 7.535 6.189 13.617 13.724 13.723h18.572v69.764c.036 7.672 6.246 13.883 13.918 13.922 7.673-.037 13.884-6.248 13.92-13.922V419.16h18.572c7.687-.107 13.832-6.428 13.724-14.115-.106-7.535-6.189-13.617-13.724-13.723v-.127zM187.033 467.896c-.036-19.201-15.583-34.764-34.784-34.818h-23.188a7.008 7.008 0 0 1-6.875-6.975 6.975 6.975 0 0 1 6.846-6.943h34.845c7.706.02 13.968-6.213 13.986-13.92.032-7.723-6.199-14.01-13.921-14.045h-34.88c-19.203.055-34.757 15.605-34.817 34.809.036 19.201 15.583 34.762 34.785 34.816h23.187a7.013 7.013 0 0 1 6.979 6.977 6.979 6.979 0 0 1-6.846 6.945h-34.933c-7.68.018-13.901 6.238-13.92 13.918.02 7.686 6.235 13.916 13.92 13.953h34.8c19.167-.052 34.708-15.55 34.816-34.717zM905.787 467.896c-.038-19.197-15.577-34.756-34.772-34.818h-23.188a7.007 7.007 0 0 1-6.978-6.975 6.975 6.975 0 0 1 6.847-6.943h34.913c7.685-.02 13.915-6.234 13.953-13.92-.042-7.689-6.266-13.91-13.953-13.951h-34.796c-19.204.055-34.76 15.609-34.813 34.814.036 19.201 15.583 34.762 34.783 34.816h23.188a6.976 6.976 0 0 1 6.941 6.977 6.972 6.972 0 0 1-6.811 6.941h-34.916c-7.679.02-13.899 6.242-13.917 13.922.018 7.684 6.232 13.914 13.917 13.953h34.829c19.197-.072 34.742-15.619 34.813-34.816h-.04zM532.965 391.195h-32.489c-7.674.035-13.886 6.246-13.921 13.922v83.68c.036 7.674 6.249 13.885 13.921 13.922h32.489c25.615-.074 46.355-20.83 46.411-46.443v-18.572c-.02-25.641-20.771-46.436-46.411-46.509zm18.569 64.981c-.017 10.248-8.32 18.553-18.569 18.572h-18.572V419.06h18.572c10.236.02 18.535 8.305 18.569 18.539v18.577zM448.626 405.24c.373-7.697-5.564-14.238-13.261-14.611-7.696-.373-14.238 5.564-14.611 13.26-.021.449-.021.9 0 1.352v51.029c-.017 10.248-8.32 18.553-18.569 18.568-10.249-.016-18.554-8.32-18.572-18.568v-51.03c.373-7.697-5.564-14.238-13.261-14.611-7.696-.373-14.238 5.564-14.611 13.26-.021.451-.021.9 0 1.352v51.029c.071 25.607 20.803 46.355 46.411 46.443 25.619-.074 46.369-20.824 46.441-46.443v-51.03h.033zM878.045 177.906h-46.41c-15.377-.747-28.446 11.112-29.193 26.487-.746 15.376 11.113 28.446 26.488 29.192.899.041 1.802.041 2.701 0h17.329c-5.128 19.843-25.369 31.771-45.212 26.646-16.388-4.235-27.833-19.021-27.824-35.948v-37.075c.072-20.328 16.421-36.848 36.747-37.133h46.804c15.377-.733 27.246-13.792 26.514-29.168-.685-14.35-12.163-25.828-26.514-26.513h-46.41c-51.216.162-92.695 41.639-92.854 92.854v37.067c.146 51.222 41.633 92.695 92.854 92.852 47.604-.146 87.438-36.167 92.362-83.519h.457v-27.872c-.037-15.364-12.474-27.816-27.839-27.87zM669.15 94.287c-15.361.038-27.804 12.481-27.842 27.842V208.3l-77.566-99.297c-7.233-13.567-24.096-18.702-37.662-11.468a27.835 27.835 0 0 0-14.742 24.569V289.14c-.808 15.372 11 28.487 26.373 29.294 15.371.807 28.486-11 29.293-26.373l.012-.217c.043-.902.043-1.801 0-2.704v-85.425l80.943 103.586c9.856 11.777 27.394 13.334 39.17 3.479a27.812 27.812 0 0 0 9.96-21.524v-167.03c-.002-15.429-12.51-27.937-27.939-27.939zM268.523 267.125l-81.622-61.413 81.622-61.377c12.41-9.144 15.057-26.616 5.914-39.025-9.144-12.41-26.617-15.058-39.026-5.915-.133.099-.265.197-.396.298l-85.156 64.028v-41.463c-.75-15.375-13.82-27.231-29.195-26.482-14.327.698-25.785 12.156-26.483 26.482v167.039c-.678 15.379 11.239 28.395 26.617 29.072 15.282.674 28.252-11.096 29.061-26.371.044-.9.044-1.802 0-2.701v-41.683l85.156 64.03c12.554 8.908 29.952 5.953 38.859-6.602 8.558-12.058 6.209-28.698-5.351-37.917zM683.167 437.73v18.67c.685 25.643 22.024 45.873 47.665 45.191 24.681-.658 44.532-20.512 45.19-45.191v-18.57c-.074-25.621-20.825-46.371-46.444-46.445-25.625.02-46.393 20.787-46.411 46.412v-.067zm27.839 0c.25-10.254 8.765-18.365 19.019-18.115 9.903.24 17.873 8.211 18.115 18.115v18.572c-.25 10.254-8.765 18.363-19.019 18.113-9.903-.24-17.873-8.211-18.115-18.113V437.73z"/><path fill="#44C0F0" d="M395.501 94.354v-.162h-92.852v130.159c.163 51.208 41.644 92.676 92.852 92.818 51.211-.143 92.695-41.61 92.855-92.818v-37.133c-.163-51.226-41.638-92.702-92.855-92.864zm37.134 129.962c-.057 20.484-16.649 37.075-37.133 37.133-20.484-.058-37.075-16.648-37.133-37.133v-37.108c.056-20.484 16.648-37.077 37.133-37.133 20.485.056 37.077 16.648 37.133 37.133v37.108z"/></svg>